<svg id="visual" viewBox="0 0 960 540" width="960" height="540" xmlns="http://www.w3.org/2000/svg" xmlns:xlink="http://www.w3.org/1999/xlink" version="1.1"><rect x="0" y="0" width="960" height="540" fill="#000"></rect><g transform="translate(444.18955740346024 272.0166455263209)"><path d="M246.9 -278.8C321.6 -231.6 384.9 -155.3 410 -64.6C435.1 26.1 422.2 131.2 369.2 204C316.2 276.8 223.3 317.4 133.8 336.6C44.2 355.8 -41.8 353.6 -124.2 329C-206.5 304.3 -285.1 257.1 -322 188.3C-358.8 119.5 -353.9 29 -342.1 -64.2C-330.4 -157.5 -311.7 -253.4 -253.6 -303.5C-195.4 -353.5 -97.7 -357.8 -5.8 -350.9C86.1 -344 172.3 -326 246.9 -278.8" fill="#0f0f0f"></path></g></svg>