<svg id="visual" viewBox="0 0 960 540" width="960" height="540" xmlns="http://www.w3.org/2000/svg" xmlns:xlink="http://www.w3.org/1999/xlink" version="1.1"><rect x="0" y="0" width="960" height="540" fill="#000"></rect><g transform="translate(509.5615083230308 254.4664714091771)"><path d="M163.8 -265.9C202.2 -230.2 216.2 -167.7 227.1 -112.8C238 -58 245.7 -10.8 258.3 51C271 112.7 288.5 189 262.5 238.1C236.5 287.2 166.8 309.1 98.2 324.9C29.6 340.6 -38 350.2 -97.9 332.9C-157.8 315.6 -210 271.4 -254.8 220.4C-299.5 169.4 -336.9 111.6 -335 54.6C-333.1 -2.4 -292.1 -58.5 -261.5 -117C-231 -175.4 -210.9 -236.2 -169.1 -270.3C-127.2 -304.3 -63.6 -311.7 -0.5 -311C62.7 -310.3 125.4 -301.5 163.8 -265.9" fill="#0f0f0f"></path></g></svg>