<svg id="visual" viewBox="0 0 960 540" width="960" height="540" xmlns="http://www.w3.org/2000/svg" xmlns:xlink="http://www.w3.org/1999/xlink" version="1.1"><rect x="0" y="0" width="960" height="540" fill="#000"></rect><g transform="translate(498.9348142964211 297.48432532598747)"><path d="M261.8 -321.7C323.6 -260.3 346.9 -162.8 349 -73.1C351.1 16.6 331.9 98.6 292.6 171.2C253.3 243.7 194 307 121.7 332.4C49.4 357.8 -35.9 345.4 -126.5 323.1C-217.2 300.8 -313.2 268.5 -356.7 201.8C-400.2 135 -391.1 33.8 -365.6 -56.4C-340 -146.5 -297.9 -225.7 -234.2 -286.8C-170.6 -347.9 -85.3 -391 7.4 -399.8C100.1 -408.6 200.1 -383.2 261.8 -321.7" fill="#0f0f0f"></path></g></svg>