<svg id="visual" viewBox="0 0 960 540" width="960" height="540" xmlns="http://www.w3.org/2000/svg" xmlns:xlink="http://www.w3.org/1999/xlink" version="1.1"><rect x="0" y="0" width="960" height="540" fill="#000"></rect><g transform="translate(481.6771382461229 266.5069858146468)"><path d="M166.4 -268.3C217.5 -226.1 262 -183.1 292.1 -129.7C322.2 -76.4 337.8 -12.8 318.6 38.2C299.3 89.1 245.3 127.4 202.5 173.8C159.7 220.2 128.2 274.7 77.3 311.8C26.4 348.9 -43.9 368.8 -103.5 351.7C-163.2 334.6 -212.4 280.6 -246.1 223.4C-279.9 166.2 -298.3 105.9 -313.6 41.3C-328.8 -23.4 -340.9 -92.3 -316.4 -143.9C-291.9 -195.5 -230.8 -229.8 -172 -268.5C-113.2 -307.1 -56.6 -350.1 0.5 -350.9C57.7 -351.7 115.3 -310.5 166.4 -268.3" fill="#0f0f0f"></path></g></svg>