<svg id="visual" viewBox="0 0 960 540" width="960" height="540" xmlns="http://www.w3.org/2000/svg" xmlns:xlink="http://www.w3.org/1999/xlink" version="1.1"><rect x="0" y="0" width="960" height="540" fill="#000"></rect><g transform="translate(488.1998559282363 247.97882917370717)"><path d="M244.2 -288C306.2 -238.9 339.2 -152.3 357.8 -61C376.3 30.2 380.4 126.1 345.3 211.1C310.2 296 235.9 370 151.6 388.5C67.3 407 -26.9 370 -107.9 327.2C-188.8 284.3 -256.3 235.7 -307.9 167.5C-359.4 99.4 -394.9 11.7 -387.1 -74.5C-379.3 -160.6 -328.1 -245.4 -256.4 -292.8C-184.7 -340.1 -92.3 -350.1 -0.6 -349.3C91.1 -348.5 182.1 -337 244.2 -288" fill="#0f0f0f"></path></g></svg>